<svg id="Laag_1" data-name="Laag 1" xmlns="http://www.w3.org/2000/svg" viewBox="0 0 529 206"><defs><style>.cls-1{fill:#003082;}</style></defs><title>logosvg</title><path class="cls-1" d="M79.61,123.59l82.25,82.35h-1.81q-27.31,0-54.64-.05a4.42,4.42,0,0,1-2.8-1.15Q51.59,153.85.67,102.87c-.24-.24-.47-.49-.82-.86.46-.5.88-1,1.35-1.46Q51.65,50.68,102.09.8a4.84,4.84,0,0,1,3.73-1.55c39.54,0,79.09.14,118.64,0A55.88,55.88,0,0,1,265.54,16c20,19.73,39.7,39.68,59.63,59.43a28.23,28.23,0,0,0,7.29,5.08,15.36,15.36,0,0,0,6.64,1.54q54.22.14,108.44.07h1.59L367.16.06l.4-.62A11.72,11.72,0,0,1,369-.71q28,0,56.06,0a3.81,3.81,0,0,1,2.49.93q50.68,50.51,101.27,101.11c.14.14.25.32.49.62-.43.47-.86,1-1.32,1.44q-49.87,50.45-99.74,100.9a4.91,4.91,0,0,1-3.88,1.65c-39.62,0-79.24-.17-118.85,0-17.2.08-31.47-6.12-43.38-18.25-18.9-19.26-37.88-38.43-56.61-57.83A21.63,21.63,0,0,0,188.86,123c-31,.11-62,0-93,0H79.85ZM449.86,123h-3.2c-35.54,0-71.08,0-106.62-.06a82.14,82.14,0,0,1-14.17-1.28c-11.79-2.12-21.32-8.4-29.66-16.78Q267.65,76.25,239,47.69c-1.15-1.16-2.32-2.3-3.52-3.4A16.27,16.27,0,0,0,224,40q-50.86.1-101.73,0a4.42,4.42,0,0,0-3.54,1.49Q99.91,60.87,81,80.2c-.49.51-1,1.06-1.7,1.92h109.2a67.81,67.81,0,0,1,19.93,2.56c9.68,2.95,17.59,8.63,24.65,15.71,19,19.1,38.23,38.08,57.18,57.28a20.15,20.15,0,0,0,15.41,6.38c33.7-.11,67.41-.06,101.11,0a4.8,4.8,0,0,0,3.75-1.5q18.75-18.87,37.6-37.65C448.63,124.42,449.05,123.92,449.86,123Z"/></svg>